<svg width="32" height="32" viewBox="0 0 32 32" fill="none" xmlns="http://www.w3.org/2000/svg">
<rect width="32" height="32" rx="16" fill="#744B20"/>
<path d="M22 11.953C22 13.3001 21.6952 14.6298 21.1085 15.8424L19.0027 20.1944C17.9731 22.3221 17.4584 23.3859 16.7271 23.6713C16.2595 23.8537 15.7405 23.8537 15.2729 23.6713C14.5416 23.3859 14.0269 22.3221 12.9973 20.1944L10.8915 15.8424C10.3048 14.6298 10 13.3001 10 11.953V11.953C10 8.66527 12.7122 6 16 6V6C19.2878 6 22 8.66527 22 11.953V11.953Z" stroke="white" stroke-width="2"/>
<path d="M18 12C18 13.1046 17.1046 14 16 14C14.8954 14 14 13.1046 14 12C14 10.8954 14.8954 10 16 10C17.1046 10 18 10.8954 18 12Z" fill="white"/>
</svg>
